<svg xmlns="http://www.w3.org/2000/svg" version="1.1" xmlns:xlink="http://www.w3.org/1999/xlink" xmlns:svgjs="http://svgjs.dev/svgjs" width="308" height="304
" viewBox="0 0 2000 2250"><g transform="matrix(1,0,0,1,3.410605131648481e-13,0)"><svg viewBox="0 0 320 360" data-background-color="#77d4fc" preserveAspectRatio="xMidYMid meet" height="2250" width="2000" xmlns="http://www.w3.org/2000/svg" xmlns:xlink="http://www.w3.org/1999/xlink"><g id="tight-bounds" transform="matrix(1,0,0,1,0,0)"><svg viewBox="0 0 320 360" height="360" width="320"><g><svg></svg></g><g><svg viewBox="0 0 320 360" height="360" width="320"><g><path d="M20.961 227.22l3.726 4.658-1.863-6.056c-0.466-2.795-3.726 0.466-1.863 1.398M25.153 224.425c1.397 2.329 2.795 4.658 2.795 6.987 0 3.261 2.795 4.658 5.123 5.589-3.261-3.726-5.124-13.974-7.918-12.576M204.017 26.929c7.918 0 15.371-0.932 23.756 0.931 20.495 5.124 37.729 15.371 49.374 29.811l32.606 52.169c1.397 13.042 4.192 27.482 3.726 43.319 3.261 0 2.795-4.658 6.521-5.59-3.726 9.316-5.59 20.961-6.521 34.469-2.329-7.453 0-18.632 0.466-24.687-3.261 5.124-5.124 1.397-5.124-0.932 0.466-3.726-1.397-3.261-2.795-4.658-5.124-4.658-8.384-9.782-12.11-17.7 2.329-6.055 2.795-14.905-4.658-19.563-2.329-1.397-5.124-3.726-6.521-7.453-1.863-5.124-5.124-11.179-4.193-19.097 0.466-2.329-6.987 5.124-11.179 1.863-18.166-12.576-36.332-27.016-58.224-39.127-11.645 0-20.029-4.192-24.221-9.316-3.726-4.658-0.932-10.713 4.658-11.179 3.261 0 6.987-0.932 9.782 0.932 0.466-1.863 2.329-4.192 4.657-4.192M157.904 16.215l0.932 0.466c4.658 0.932 6.987 7.453 12.11 5.124 0 3.261 0.466 6.521-0.466 8.85-1.397 3.726-5.59 3.726-8.85 3.726-31.208-1.863-49.374 11.179-68.471 22.358-5.124 3.261-10.713 5.59-14.906 9.782-20.029 18.632-41.921 35.866-47.045 70.335l-4.192 38.195c-0.466 4.192-5.124 8.384-4.192 13.508l3.26 22.824c-3.261-3.261-5.124 0.932-4.192 2.795 0.466 1.397 2.329 6.055 5.124 1.863 3.726 6.987 7.453 20.495 12.576 26.55 15.837 18.632 36.332 35.4 53.101 52.169 4.192-0.932 7.453-0.932 8.384-3.727 1.397 2.795-1.397 5.59-3.726 6.056 7.453 4.658 15.837 8.85 27.016 9.781 14.44 0.932 27.948 3.261 40.524 6.522 6.521-1.863 13.042-2.795 20.029-3.261 2.329 0 3.726-3.726 6.521-4.658l0.466-4.658c2.795 4.192 2.329-1.397 0.466-4.192 3.261 2.795 4.192 5.124 5.589 6.987 0-1.397 3.726-6.521 3.727-0.466l0.931-6.055c1.397-0.932 1.863 5.124 3.261 0.931 1.397-4.192 4.192-0.932 6.987-2.329-0.932 1.863-0.466 5.59 2.794 3.261l3.727-3.261c2.329 5.59 6.055 3.261 7.918 2.329 20.495-13.042 40.99-28.413 60.553-43.784l-0.466 6.055 2.329-7.453c2.329 2.329 4.192 0.466 5.124-0.931 2.795-4.658 6.521-9.316 12.577-13.508-7.453 20.029-16.303 35.866-27.482 48.908l-4.658 5.59c0 3.261-0.932 7.453-4.658 7.918-1.863 0.466-5.59-0.932-8.384 1.863-1.397 1.863 3.261 5.59-0.466 2.795-3.261-2.329-6.521 0-10.248 0.932-2.795 0.932 1.863 3.726 2.795 5.589 0.932 1.863 1.863 3.726 1.398 6.056l-5.124-5.59c-6.055 3.261-9.782 9.316-14.906 13.974-2.329 1.863-1.397 5.124-1.397 7.918-3.261 0-6.987-0.932-8.85 0.932-1.397 1.863-0.932 4.658-0.932 7.453-4.658-0.466-5.124-7.453-9.315-6.056-4.192 0.932-8.85 1.397-12.577 3.727 2.795 5.59-4.658 2.329-3.726 3.26-6.987-4.192-13.042-7.453-20.495-4.658-15.837-5.124-35.4-2.795-49.84-0.931 0-2.329 0.466-4.658-0.466-5.124-0.932 2.329-3.726 1.397-3.26 1.397-8.85-6.055-17.7-9.782-27.016-14.905-8.384 0.932-16.303-3.261-18.632-5.59-6.521-6.055-13.974-2.795-20.029-4.192-13.042-3.261-17.7-16.769-19.098-26.084-0.932-4.658-4.658-6.521-6.055-6.056-6.055-19.563-15.371-37.263-22.824-55.429-1.863-4.658-1.397-9.316-1.397-14.44 2.329 0.932 4.658 0.466 4.192-2.794-2.329-15.371-7.918-27.016-13.974-38.195 3.261-15.837 3.726-34.469 11.179-48.443 6.521-12.576 18.632-19.098 27.016-29.811 2.795-3.726 2.795-8.85 5.59-12.11 9.316-9.316 18.632-19.098 28.879-27.482 4.658-3.726 10.247 0 17.234-1.397 2.329-8.384 11.645-15.837 20.495-13.508 3.726 0.932 11.179-8.85 13.508-9.782 3.726-1.397 1.863 3.726 1.863 6.987 8.85-6.987 20.961-10.713 32.14-14.906" fill="#ffffff" fill-rule="nonzero" stroke="none" stroke-width="1" stroke-linecap="butt" stroke-linejoin="miter" stroke-miterlimit="10" stroke-dasharray="" stroke-dashoffset="0" font-family="none" font-weight="none" font-size="none" text-anchor="none" style="mix-blend-mode: normal" data-fill-palette-color="tertiary"></path></g><g transform="matrix(1,0,0,1,82.35597202797203,90)"><svg viewBox="0 0 155.28805594405594 180" height="180" width="155.28805594405594"><g><svg viewBox="0 0 155.28805594405594 180" height="180" width="155.28805594405594"><g><svg viewBox="0 0 155.28805594405594 180" height="180" width="155.28805594405594"><g id="textblocktransform"><svg viewBox="0 0 155.28805594405594 180" height="180" width="155.28805594405594" id="textblock"><g><svg viewBox="0 0 155.28805594405594 180" height="180" width="155.28805594405594"><path d="M154.924 38.607C154.194 19.923 152.114 14.728 152.114 14.728 145.726-4.516 137.754-0.368 130.592 2.397 117.948 2.509 105.355 6.62 92.739 8.824 66.261 9.161 39.556 3.63 13.209 17.27 10.734 21.455-2.568 18.092 0.44 40.998 1.229 50.527 4.105 61.102 4.017 69.846 4.412 71.378 4.959 67.866 5.193 70.07 6.01 76.012 7.346 73.209 8.441 76.722 6.916 86.101 8.011 93.911 9.055 102.095 7.215 104.225 4.857 103.216 3.798 110.278 3.689 115.398 3.098 114.426 2.448 114.202 1.973 114.052 1.017 114.613 1.178 116.22 1.725 121.713-0.626 124.889 0.849 130.27-0.166 136.099 1.55 141.144 1.316 147.459 1.287 148.73 1.448 149.813 1.703 150.112 2.835 151.719 1.185 154.858 1.36 158.258 12.968 181.501 25.561 165.433 37.453 176.12 40.541 168.647 38.22 178.773 39.454 177.204 40.417 175.373 41.118 182.959 42.206 178.661 42.374 177.428 42.118 174.514 42.717 175.074 43.031 175.373 43.308 175.298 43.352 173.579 43.418 171.001 42.841 172.608 42.688 171.263 44.345 164.462 43.936 180.642 45.491 179.969 45.418 177.989 44.965 175.149 45.893 175.522 46.813 172.682 46.842 170.328 47.659 176.718 47.689 178.101 47.835 179.072 48.068 179.745 50.623 172.795 53.164 182.211 55.843 179.072 57.486 175.635 59.063 180.941 60.727 179.633 61.311 178.587 61.902 176.718 62.465 179.857 69.349 180.53 76.686 177.727 83.212 179.969 100.653 175.784 119.291 181.688 137.681 176.158 142.017 174.028 146.522 171.001 150.749 168.572 150.749 168.572 154.173 161.921 154.173 132.026S154.903 105.869 155.012 82.065C155.122 58.262 155.633 57.29 154.903 38.607Z" opacity="1" fill="#ffffff" data-fill-palette-color="tertiary"></path><g transform="matrix(1,0,0,1,27.071999999999996,19.1)"><svg width="101.14405594405595" viewBox="0 -35 25.5 35.75" height="141.8" data-palette-color="#77d4fc"><path d="M9.25 0.75Q4.65 0.75 2.33-0.85 0-2.45 0-4.75L0-4.75Q0-6.45 1.03-7.48 2.05-8.5 3.75-8.5L3.75-8.5Q4.15-8.5 4.55-8.43 4.95-8.35 5.1-8.35L5.1-8.35 5.75-8.25 5.75-0.75Q6.1-0.55 6.45-0.5L6.45-0.5Q7.3-0.25 8.25-0.25L8.25-0.25Q14.25-0.25 14.25-10L14.25-10 14.25-33.5 11.25-34.25 11.25-35 25.5-35 25.5-34.25 22.5-33.5 22.5-10Q22.5-4.8 19.25-2.02 16 0.75 9.25 0.75L9.25 0.75Z" opacity="1" transform="matrix(1,0,0,1,0,0)" fill="#000000" class="undefined-text-0" data-fill-palette-color="quaternary" id="text-0"></path></svg></g></svg></g></svg></g></svg></g><g></g></svg></g></svg></g></svg></g><defs></defs></svg><rect width="320" height="360" fill="none" stroke="none" visibility="hidden"></rect></g></svg></g></svg>